<svg version="1.1" xmlns="http://www.w3.org/2000/svg" xmlns:xlink="http://www.w3.org/1999/xlink" width="225.5px" height="225.5px" viewBox="0,0,256,256"><g fill="#ffffff" fill-rule="nonzero" stroke="none" stroke-width="1" stroke-linecap="butt" stroke-linejoin="miter" stroke-miterlimit="10" stroke-dasharray="" stroke-dashoffset="0" font-family="none" font-weight="none" font-size="none" text-anchor="none" style="mix-blend-mode: normal"><g transform="translate(-1.54962,-0.97632) scale(1.13525,1.13525)"><g><g><g><path d="M76.25,68.46c-24.93,0 -45.15,20.21 -45.15,45.15c0,24.94 20.21,45.15 45.15,45.15c24.94,0 45.15,-20.21 45.15,-45.15c0,-24.93 -20.22,-45.15 -45.15,-45.15zM76.25,143.73c-16.63,0 -30.12,-13.49 -30.12,-30.12c0,-16.63 13.49,-30.12 30.12,-30.12c16.63,0 30.12,13.49 30.12,30.12c0,16.63 -13.49,30.12 -30.12,30.12z"></path><path d="M76.25,100.8c-7.07,0 -12.81,5.74 -12.81,12.81c0,7.08 5.74,12.81 12.81,12.81c7.08,0 12.81,-5.74 12.81,-12.81c0,-7.07 -5.74,-12.81 -12.81,-12.81z"></path><path d="M151.98,68.46c-11.97,0 -22.84,4.67 -30.92,12.27c3.12,4.24 5.65,8.94 7.48,13.98c5.52,-6.84 13.97,-11.22 23.45,-11.22c16.63,0 30.12,13.49 30.12,30.12c0,16.63 -13.49,30.12 -30.12,30.12c-9.48,0 -17.93,-4.38 -23.45,-11.22c-1.82,5.04 -4.36,9.74 -7.48,13.98c8.08,7.6 18.95,12.27 30.92,12.27c24.94,0 45.15,-20.21 45.15,-45.15c0,-24.93 -20.22,-45.15 -45.15,-45.15z"></path><path d="M164.79,113.61c0,-7.07 -5.73,-12.81 -12.81,-12.81c-7.07,0 -12.81,5.74 -12.81,12.81c0,7.08 5.74,12.81 12.81,12.81c7.07,0 12.81,-5.73 12.81,-12.81z"></path></g></g></g></g></g></svg>