<?xml version="1.0" encoding="utf-8"?>
<!-- Generator: Adobe Illustrator 27.0.0, SVG Export Plug-In . SVG Version: 6.00 Build 0)  -->
<svg version="1.1" id="Layer_1" xmlns="http://www.w3.org/2000/svg" xmlns:xlink="http://www.w3.org/1999/xlink" x="0px" y="0px"
	 viewBox="0 0 546.4 96.7" style="enable-background:new 0 0 546.4 96.7;" xml:space="preserve">
<style type="text/css">
	.st0{fill:#FFFFFF;}
</style>
<g>
	<path class="st0" d="M249,84.6l-4.7-21.3L238,36.5h-0.4l-11.1,48.1h-17.8l-17.3-60.8H208l7,26.9c1.1,4.8,2.3,11.5,3.4,20h0.3
		c0.1-2.8,0.8-7.1,1.9-13.1l0.9-4.6l7.5-29.2h18.3l7.1,29.2c0.1,0.8,0.4,2,0.7,3.5c0.3,1.6,0.6,3.2,0.9,5c0.3,1.8,0.6,3.5,0.8,5.2
		s0.4,3,0.4,4.1h0.3c0.3-2.6,0.9-6.2,1.7-10.7c0.8-4.6,1.4-7.6,1.8-9.2l7.3-26.9h16.3l-17.5,60.8H249z"/>
	<path class="st0" d="M326.3,84.6l-3.2-8.3h-0.4c-2.8,3.5-5.7,6-8.6,7.3c-3,1.4-6.8,2-11.6,2c-5.8,0-10.4-1.7-13.8-5
		c-3.4-3.3-5-8.1-5-14.3c0-6.5,2.3-11.2,6.8-14.3c4.5-3.1,11.3-4.8,20.4-5.1l10.6-0.3v-2.7c0-6.2-3.2-9.2-9.5-9.2
		c-4.9,0-10.6,1.5-17.1,4.4l-5.5-11.2c7-3.7,14.8-5.5,23.3-5.5c8.2,0,14.4,1.8,18.8,5.3s6.5,9,6.5,16.2v40.5H326.3z M321.4,56.5
		l-6.4,0.2c-4.8,0.1-8.4,1-10.8,2.6c-2.4,1.6-3.5,4-3.5,7.3c0,4.7,2.7,7,8.1,7c3.8,0,6.9-1.1,9.2-3.3c2.3-2.2,3.5-5.1,3.5-8.8V56.5z
		"/>
	<path class="st0" d="M365.3,84.6h-16.6V0h16.6V84.6z"/>
	<path class="st0" d="M432.5,84.6h-16.6V49.1c0-4.4-0.8-7.7-2.3-9.9c-1.6-2.2-4-3.3-7.5-3.3c-4.6,0-8,1.5-10.1,4.6
		C394,43.7,393,48.8,393,56v28.6h-16.6V23.8h12.7l2.2,7.8h0.9c1.8-2.9,4.4-5.2,7.6-6.7c3.2-1.5,6.9-2.3,11.1-2.3
		c7.1,0,12.4,1.9,16.1,5.7c3.7,3.8,5.5,9.3,5.5,16.6V84.6z"/>
	<path class="st0" d="M486.3,84.6l-2.2-7.8h-0.9c-1.8,2.8-4.3,5-7.6,6.6c-3.3,1.5-7,2.3-11.1,2.3c-7.1,0-12.5-1.9-16.2-5.7
		c-3.6-3.8-5.4-9.3-5.4-16.5V23.8h16.6v35.5c0,4.4,0.8,7.7,2.3,9.9c1.6,2.2,4,3.3,7.5,3.3c4.6,0,8-1.6,10.1-4.6
		c2.1-3.1,3.1-8.2,3.1-15.4V23.8h16.6v60.8H486.3z"/>
	<path class="st0" d="M536,72.5c2.9,0,6.4-0.6,10.4-1.9v12.3c-4.1,1.8-9.2,2.8-15.2,2.8c-6.6,0-11.5-1.7-14.5-5
		c-3-3.4-4.5-8.4-4.5-15.1V36.3h-7.9v-7l9.1-5.5l4.8-12.8h10.6v12.9h17v12.5h-17v29.3c0,2.4,0.7,4.1,2,5.2
		C532,71.9,533.8,72.5,536,72.5z"/>
</g>
<g>
	<path class="st0" d="M45.1,6.4C20.2,6.4,0,26.6,0,51.5c0,24.9,20.2,45.1,45.1,45.1c24.9,0,45.1-20.2,45.1-45.1
		C90.3,26.6,70.1,6.4,45.1,6.4z M45.1,81.7C28.5,81.7,15,68.2,15,51.5s13.5-30.1,30.1-30.1s30.1,13.5,30.1,30.1S61.8,81.7,45.1,81.7
		z"/>
	<path class="st0" d="M45.1,38.7c-7.1,0-12.8,5.7-12.8,12.8c0,7.1,5.7,12.8,12.8,12.8c7.1,0,12.8-5.7,12.8-12.8
		C58,44.5,52.2,38.7,45.1,38.7z"/>
	<path class="st0" d="M120.9,6.4c-12,0-22.8,4.7-30.9,12.3c3.1,4.2,5.7,8.9,7.5,14c5.5-6.8,14-11.2,23.4-11.2
		c16.6,0,30.1,13.5,30.1,30.1s-13.5,30.1-30.1,30.1c-9.5,0-17.9-4.4-23.4-11.2c-1.8,5-4.4,9.7-7.5,14c8.1,7.6,19,12.3,30.9,12.3
		c24.9,0,45.1-20.2,45.1-45.1C166,26.6,145.8,6.4,120.9,6.4z"/>
	<path class="st0" d="M133.7,51.5c0-7.1-5.7-12.8-12.8-12.8c-7.1,0-12.8,5.7-12.8,12.8c0,7.1,5.7,12.8,12.8,12.8
		C128,64.4,133.7,58.6,133.7,51.5z"/>
</g>
</svg>
