<?xml version="1.0" encoding="utf-8"?>
<!-- Generator: Adobe Illustrator 27.0.0, SVG Export Plug-In . SVG Version: 6.00 Build 0)  -->
<svg version="1.1" id="Layer_1" xmlns="http://www.w3.org/2000/svg" xmlns:xlink="http://www.w3.org/1999/xlink" x="0px" y="0px"
	 viewBox="0 0 166 90.4" style="enable-background:new 0 0 166 90.4;" xml:space="preserve">
<style type="text/css">
	.st0{fill:url(#SVGID_1_);}
	.st1{fill:#FFFFFF;}
</style>
<linearGradient id="SVGID_1_" gradientUnits="userSpaceOnUse" x1="18.9" y1="-19.9062" x2="147.1" y2="108.2938" gradientTransform="matrix(1 0 0 -1 0 89.3938)">
	<stop  offset="0" style="stop-color:#1EC9E0"/>
	<stop  offset="1" style="stop-color:#19E1BB"/>
</linearGradient>
<rect class="st0" width="166" height="90.4"/>
<g>
	<path class="st1" d="M45.1,0C20.2,0,0,20.2,0,45.1s20.2,45.1,45.1,45.1S90.2,70,90.2,45.1C90.3,20.2,70.1,0,45.1,0z M45.1,75.2
		C28.5,75.2,15,61.7,15,45.1S28.5,15,45.1,15s30.1,13.5,30.1,30.1S61.8,75.2,45.1,75.2z"/>
	<path class="st1" d="M45.1,32.3c-7.1,0-12.8,5.7-12.8,12.8c0,7.1,5.7,12.8,12.8,12.8s12.8-5.7,12.8-12.8C58,38,52.2,32.3,45.1,32.3
		z"/>
	<path class="st1" d="M120.9,0c-12,0-22.8,4.7-30.9,12.3c3.1,4.2,5.7,8.9,7.5,14c5.5-6.8,14-11.2,23.4-11.2
		c16.6,0,30.1,13.5,30.1,30.1s-13.5,30.1-30.1,30.1c-9.5,0-17.9-4.4-23.4-11.2c-1.8,5-4.4,9.7-7.5,14c8.1,7.6,19,12.3,30.9,12.3
		c24.9,0,45.1-20.2,45.1-45.1C166,20.2,145.8,0,120.9,0z"/>
	<path class="st1" d="M133.7,45.1c0-7.1-5.7-12.8-12.8-12.8c-7.1,0-12.8,5.7-12.8,12.8c0,7.1,5.7,12.8,12.8,12.8
		C128,57.9,133.7,52.2,133.7,45.1z"/>
</g>
</svg>
