<?xml version="1.0" encoding="utf-8"?>
<!-- Generator: Adobe Illustrator 27.0.0, SVG Export Plug-In . SVG Version: 6.00 Build 0)  -->
<svg version="1.1" id="Layer_1" xmlns="http://www.w3.org/2000/svg" xmlns:xlink="http://www.w3.org/1999/xlink" x="0px" y="0px"
	 viewBox="0 0 165.9 165.9" style="enable-background:new 0 0 165.9 165.9;" xml:space="preserve">
<style type="text/css">
	.st0{fill:url(#SVGID_1_);}
	.st1{fill:#FFFFFF;}
</style>
<linearGradient id="SVGID_1_" gradientUnits="userSpaceOnUse" x1="6.163186e-05" y1="3347.6143" x2="165.9005" y2="3181.7136" gradientTransform="matrix(1 0 0 1 0 -3181.7136)">
	<stop  offset="0" style="stop-color:#1EC9E0"/>
	<stop  offset="1" style="stop-color:#19E1BB"/>
</linearGradient>
<rect class="st0" width="165.9" height="165.9"/>
<g>
	<path class="st1" d="M45.1,37.7C20.2,37.7,0,57.9,0,82.8s20.2,45.1,45.1,45.1s45.1-20.2,45.1-45.1C90.3,57.9,70,37.7,45.1,37.7z
		 M45.1,113C28.5,113,15,99.5,15,82.9s13.5-30.1,30.1-30.1s30.1,13.4,30.1,30S61.7,113,45.1,113z"/>
	<path class="st1" d="M45.1,70c-7.1,0-12.8,5.7-12.8,12.8c0,7.1,5.7,12.8,12.8,12.8s12.8-5.7,12.8-12.8C57.9,75.8,52.2,70,45.1,70z"
		/>
	<path class="st1" d="M120.8,37.7c-12,0-22.8,4.7-30.9,12.3c3.1,4.2,5.7,8.9,7.5,14c5.5-6.8,14-11.2,23.4-11.2
		c16.6,0,30.1,13.5,30.1,30.1S137.4,113,120.8,113c-9.5,0-17.9-4.4-23.4-11.2c-1.8,5-4.4,9.7-7.5,14c8.1,7.6,19,12.3,30.9,12.3
		c24.9,0,45.1-20.2,45.1-45.1C166,57.9,145.8,37.7,120.8,37.7z"/>
	<path class="st1" d="M133.7,82.8c0-7.1-5.7-12.8-12.8-12.8c-7.1,0-12.8,5.7-12.8,12.8c0,7.1,5.7,12.8,12.8,12.8
		C127.9,95.6,133.7,89.9,133.7,82.8z"/>
</g>
</svg>
