<?xml version="1.0" encoding="utf-8"?>
<!-- Generator: Adobe Illustrator 27.0.0, SVG Export Plug-In . SVG Version: 6.00 Build 0)  -->
<svg version="1.1" id="Layer_1" xmlns="http://www.w3.org/2000/svg" xmlns:xlink="http://www.w3.org/1999/xlink" x="0px" y="0px"
	 viewBox="0 0 168.3 168.3" style="enable-background:new 0 0 168.3 168.3;" xml:space="preserve">
<style type="text/css">
	.st0{fill:#FFFFFF;}
</style>
<g>
	<path class="st0" d="M46.3,38.9C21.4,38.9,1.1,59.1,1.1,84c0,24.9,20.2,45.1,45.1,45.1c24.9,0,45.1-20.2,45.1-45.1
		C91.4,59.1,71.2,38.9,46.3,38.9z M46.3,114.1c-16.6,0-30.1-13.5-30.1-30.1s13.5-30.1,30.1-30.1S76.4,67.4,76.4,84
		S62.9,114.1,46.3,114.1z"/>
	<path class="st0" d="M46.3,71.2c-7.1,0-12.8,5.7-12.8,12.8c0,7.1,5.7,12.8,12.8,12.8c7.1,0,12.8-5.7,12.8-12.8
		C59.1,77,53.4,71.2,46.3,71.2z"/>
	<path class="st0" d="M122,38.9c-12,0-22.8,4.7-30.9,12.3c3.1,4.2,5.7,8.9,7.5,14c5.5-6.8,14-11.2,23.4-11.2
		c16.6,0,30.1,13.5,30.1,30.1s-13.5,30.1-30.1,30.1c-9.5,0-17.9-4.4-23.4-11.2c-1.8,5-4.4,9.7-7.5,14c8.1,7.6,19,12.3,30.9,12.3
		c24.9,0,45.1-20.2,45.1-45.1C167.2,59.1,147,38.9,122,38.9z"/>
	<path class="st0" d="M134.8,84c0-7.1-5.7-12.8-12.8-12.8c-7.1,0-12.8,5.7-12.8,12.8c0,7.1,5.7,12.8,12.8,12.8
		C129.1,96.8,134.8,91.1,134.8,84z"/>
</g>
</svg>
